<svg width="78" height="130" viewBox="0 0 78 130" fill="none" xmlns="http://www.w3.org/2000/svg">
<g id="Group">
<g id="Group_2">
<path id="Vector" d="M38.5592 42.4115C50.2678 42.4115 59.7595 32.9174 59.7595 21.2057C59.7595 9.49414 50.2678 0 38.5592 0C26.8506 0 17.359 9.49414 17.359 21.2057C17.359 32.9174 26.8506 42.4115 38.5592 42.4115Z" fill="#002334"/>
<path id="Vector_2" d="M38.5592 100.283C59.8505 100.283 77.1105 83.0186 77.1105 61.7217C77.1105 40.4249 59.8505 23.1605 38.5592 23.1605C17.2679 23.1605 0.00793457 40.4249 0.00793457 61.7217C0.00793457 83.0186 17.2679 100.283 38.5592 100.283Z" fill="#002334"/>
</g>
<g id="Group_3">
<path id="Vector_3" d="M15.1894 77.0745C17.9693 75.9227 19.2894 72.7348 18.1379 69.9542C16.9864 67.1736 13.7994 65.8531 11.0194 67.0049C8.23951 68.1567 6.91941 71.3446 8.07092 74.1253C9.22243 76.9059 12.4095 78.2263 15.1894 77.0745Z" fill="#79483E"/>
<path id="Vector_4" d="M66.236 77.0694C69.0159 75.9176 70.336 72.7297 69.1845 69.949C68.033 67.1684 64.8459 65.8479 62.066 66.9997C59.2861 68.1515 57.966 71.3394 59.1175 74.1201C60.269 76.9007 63.4561 78.2212 66.236 77.0694Z" fill="#79483E"/>
</g>
<g id="Group_4">
<path id="Vector_5" d="M38.9145 129.012C33.8809 129.012 29.7356 124.865 29.7356 119.83V101.764C29.7356 96.729 33.8809 92.5826 38.9145 92.5826C43.9481 92.5826 48.0934 96.729 48.0934 101.764V119.83C48.0934 124.865 44.0073 129.012 38.9145 129.012Z" fill="#63382F"/>
<path id="Vector_6" d="M38.9145 116.632C33.8809 116.632 29.7356 112.485 29.7356 107.45V89.384C29.7356 84.3491 33.8809 80.2028 38.9145 80.2028C43.9481 80.2028 48.0934 84.3491 48.0934 89.384V107.45C48.0934 112.544 44.0073 116.632 38.9145 116.632Z" fill="#532C24"/>
</g>
<path id="Vector_7" d="M38.5592 107.865C24.6429 107.865 13.2137 96.4328 13.2137 82.5129V67.2897C13.2137 53.3105 24.6429 41.9376 38.5592 41.9376C52.4756 41.9376 63.9048 53.3698 63.9048 67.2897V82.5129C63.9048 96.4328 52.4756 107.865 38.5592 107.865Z" fill="#A16356"/>
<path id="Vector_8" d="M38.5592 98.7429C24.6429 98.7429 13.2137 87.3108 13.2137 73.3908V82.5128C13.2137 96.4328 24.6429 107.865 38.5592 107.865C52.4756 107.865 63.9048 96.4328 63.9048 82.5128V73.3908C63.9048 87.3108 52.4756 98.7429 38.5592 98.7429Z" fill="#92594D"/>
<path id="Vector_9" d="M21.9188 75.6417C22.1557 84.6453 29.4988 91.8718 38.5592 91.8718C47.6197 91.8718 54.9628 84.6453 55.1996 75.6417H21.9188Z" fill="white"/>
<g id="Group_5">
<g id="Group_6">
<g id="Group_7">
<path id="Vector_10" d="M29.2619 64.3873H21.8004C20.083 64.3873 18.721 62.9656 18.721 61.3071C18.721 59.5893 20.1423 58.2269 21.8004 58.2269H29.2619C30.9792 58.2269 32.3413 59.6485 32.3413 61.3071C32.3413 62.9656 30.9792 64.3873 29.2619 64.3873Z" fill="#79483E"/>
<path id="Vector_11" d="M29.2619 60.004H21.8004C20.083 60.004 18.721 58.5823 18.721 56.9238C18.721 55.206 20.1422 53.8436 21.8004 53.8436H29.2619C30.9792 53.8436 32.3413 55.2652 32.3413 56.9238C32.3413 58.6416 30.9792 60.004 29.2619 60.004Z" fill="#002334"/>
</g>
<g id="Group_8">
<path id="Vector_12" d="M55.3181 64.3873H47.8565C46.1392 64.3873 44.7772 62.9656 44.7772 61.3071C44.7772 59.5893 46.1984 58.2269 47.8565 58.2269H55.3181C57.0354 58.2269 58.3974 59.6485 58.3974 61.3071C58.4567 62.9656 57.0354 64.3873 55.3181 64.3873Z" fill="#79483E"/>
<path id="Vector_13" d="M55.3181 60.004H47.8565C46.1392 60.004 44.7772 58.5823 44.7772 56.9238C44.7772 55.206 46.1984 53.8436 47.8565 53.8436H55.3181C57.0354 53.8436 58.3974 55.2652 58.3974 56.9238C58.4567 58.6416 57.0354 60.004 55.3181 60.004Z" fill="#002334"/>
</g>
</g>
<g id="Group_9">
<path id="Vector_14" d="M25.3535 72.0284C24.1691 72.0284 23.2216 71.0807 23.2216 69.896V67.7636C23.2216 66.5789 24.1691 65.6312 25.3535 65.6312C26.5378 65.6312 27.4853 66.5789 27.4853 67.7636V69.896C27.4853 71.0807 26.5378 72.0284 25.3535 72.0284Z" fill="#002334"/>
<path id="Vector_15" d="M51.765 72.0284C50.5806 72.0284 49.6331 71.0807 49.6331 69.896V67.7636C49.6331 66.5789 50.5806 65.6312 51.765 65.6312C52.9493 65.6312 53.8968 66.5789 53.8968 67.7636V69.896C53.8968 71.0807 52.9493 72.0284 51.765 72.0284Z" fill="#002334"/>
</g>
</g>
</g>
</svg>
