<svg width="214" height="138" viewBox="0 0 214 138" fill="none" xmlns="http://www.w3.org/2000/svg">
<g id="Frame" clip-path="url(#clip0_1_41)">
<g id="Group">
<g id="Group_2">
<path id="Vector" d="M90.7342 110.935H77.519C77.519 103.69 83.4431 97.7534 90.7848 97.7534V110.935H90.7342Z" fill="#711470"/>
<path id="Vector_2" d="M90.7342 110.935H77.519V137.499C77.519 141.121 80.5064 144.089 84.1519 144.089C87.7975 144.089 90.7848 141.121 90.7848 137.499V110.935H90.7342Z" fill="#F6C09C"/>
<path id="Vector_3" d="M90.7848 110.935H77.519V115.664H90.7848V110.935Z" fill="#EE927E"/>
<path id="Vector_4" d="M83.0886 145.146C87.3391 145.146 90.7848 141.722 90.7848 137.499C90.7848 133.275 87.3391 129.852 83.0886 129.852C78.8381 129.852 75.3924 133.275 75.3924 137.499C75.3924 141.722 78.8381 145.146 83.0886 145.146Z" fill="#F6C09C"/>
</g>
<g id="Group_3">
<path id="Vector_5" d="M105.215 110.935H118.481C118.481 103.69 112.557 97.7534 105.215 97.7534V110.935Z" fill="#711470"/>
<path id="Vector_6" d="M105.215 110.935H118.481V137.499C118.481 141.121 115.494 144.089 111.848 144.089C108.203 144.089 105.215 141.121 105.215 137.499V110.935Z" fill="#F6C09C"/>
<path id="Vector_7" d="M105.155 115.655H118.421V110.926H105.155V115.655Z" fill="#EE927E"/>
<path id="Vector_8" d="M112.861 145.146C117.111 145.146 120.557 141.722 120.557 137.499C120.557 133.275 117.111 129.852 112.861 129.852C108.61 129.852 105.165 133.275 105.165 137.499C105.165 141.722 108.61 145.146 112.861 145.146Z" fill="#F6C09C"/>
</g>
<path id="Vector_9" d="M98.1772 122.355H84.8608V139.662H98.1772V122.355Z" fill="#00757B"/>
<path id="Vector_10" d="M98.3798 124.166C106.853 124.166 113.722 117.341 113.722 108.922C113.722 100.503 106.853 93.6782 98.3798 93.6782C89.9067 93.6782 83.038 100.503 83.038 108.922C83.038 117.341 89.9067 124.166 98.3798 124.166Z" fill="#8F278E"/>
<path id="Vector_11" d="M98.3798 115.664C91.3924 115.664 85.4684 111.035 83.6456 104.646C83.2405 106.004 83.038 107.463 83.038 108.922C83.038 117.375 89.9241 124.166 98.3798 124.166C106.835 124.166 113.722 117.324 113.722 108.922C113.722 107.463 113.519 106.004 113.114 104.646C111.291 110.985 105.367 115.664 98.3798 115.664Z" fill="#711470"/>
<g id="Group_4">
<path id="Vector_12" d="M98.3798 102.784C95.2405 102.784 92.6582 100.219 92.6582 97.0994V89.3515C92.6582 86.2323 95.2405 83.6664 98.3798 83.6664C101.519 83.6664 104.101 86.2323 104.101 89.3515V97.0994C104.101 100.219 101.519 102.784 98.3798 102.784Z" fill="#EE927E"/>
<path id="Vector_13" d="M98.3798 97.7534C95.2405 97.7534 92.6582 95.1876 92.6582 92.0683V81.6037C92.6582 78.4845 95.2405 75.9186 98.3798 75.9186C101.519 75.9186 104.101 78.4845 104.101 81.6037V92.0683C104.101 95.1876 101.519 97.7534 98.3798 97.7534Z" fill="#E9686A"/>
</g>
<path id="Vector_14" d="M76.3545 75.164C64.962 63.8441 64.962 45.3298 76.3545 34.0602L102.076 8.50248C113.468 -2.8174 132.101 -2.8174 143.443 8.50248C154.835 19.8224 154.835 38.3366 143.443 49.6062L117.722 75.164C106.38 86.4838 87.7469 86.4838 76.3545 75.164Z" fill="#DD2B26"/>
<g id="Group_5">
<path id="Vector_15" d="M127.038 63.1397C130.198 63.1397 132.759 60.5944 132.759 57.4546C132.759 54.3148 130.198 51.7695 127.038 51.7695C123.878 51.7695 121.316 54.3148 121.316 57.4546C121.316 60.5944 123.878 63.1397 127.038 63.1397Z" fill="#EE927E"/>
<path id="Vector_16" d="M69.7215 63.1397C72.8814 63.1397 75.443 60.5944 75.443 57.4546C75.443 54.3148 72.8814 51.7695 69.7215 51.7695C66.5616 51.7695 64 54.3148 64 57.4546C64 60.5944 66.5616 63.1397 69.7215 63.1397Z" fill="#EE927E"/>
</g>
<g id="Group_6">
<path id="Vector_17" d="M119.8 83.5126C131.624 71.7635 131.624 52.7145 119.8 40.9654C107.976 29.2163 88.8045 29.2163 76.9801 40.9654C65.1557 52.7145 65.1557 71.7635 76.9801 83.5126C88.8045 95.2617 107.976 95.2617 119.8 83.5126Z" fill="#F6C09C"/>
<path id="Vector_18" d="M98.481 79.9938C83.8481 79.9938 71.595 69.6298 68.8101 55.895C68.3544 57.9074 68.1519 60.0205 68.1519 62.1838C68.1519 78.7863 81.7215 92.2696 98.4304 92.2696C115.139 92.2696 128.709 78.7863 128.709 62.1838C128.709 60.1211 128.506 58.1087 128.101 56.1969C125.114 69.831 113.013 79.9938 98.481 79.9938Z" fill="#F5B296"/>
<path id="Vector_19" d="M79.4937 53.1279C79.7468 63.2907 88.1013 71.441 98.4304 71.441C108.76 71.441 117.063 63.2907 117.367 53.1279H79.4937Z" fill="white"/>
<g id="Group_7">
<g id="Group_8">
<path id="Vector_20" d="M85.5696 48.7509C85.5696 48.0465 86.1266 47.4931 86.8354 47.4931H89.3671C90.0759 47.4931 90.6329 48.0465 90.6329 48.7509C90.6329 49.4552 90.0759 50.0086 89.3671 50.0086H86.8354C86.1266 50.0086 85.5696 49.4552 85.5696 48.7509Z" fill="#002334"/>
<path id="Vector_21" d="M90.3291 45.1788H85.7722C84.8101 45.1788 84 44.3739 84 43.418C84 42.4621 84.8101 41.6571 85.7722 41.6571H90.3291C91.2911 41.6571 92.1013 42.4621 92.1013 43.418C92.1519 44.3739 91.3418 45.1788 90.3291 45.1788Z" fill="#EE927E"/>
<path id="Vector_22" d="M90.3291 42.5627H85.7722C84.8101 42.5627 84 41.7577 84 40.8018C84 39.8459 84.8101 39.041 85.7722 39.041H90.3291C91.2911 39.041 92.1013 39.8459 92.1013 40.8018C92.1519 41.7577 91.3418 42.5627 90.3291 42.5627Z" fill="#002334"/>
</g>
<g id="Group_9">
<path id="Vector_23" d="M106.177 48.7509C106.177 48.0465 106.734 47.4931 107.443 47.4931H109.975C110.684 47.4931 111.24 48.0465 111.24 48.7509C111.24 49.4552 110.684 50.0086 109.975 50.0086H107.443C106.785 50.0086 106.177 49.4552 106.177 48.7509Z" fill="#002334"/>
<path id="Vector_24" d="M110.987 45.1788H106.43C105.468 45.1788 104.658 44.3739 104.658 43.418C104.658 42.4621 105.468 41.6571 106.43 41.6571H110.987C111.949 41.6571 112.76 42.4621 112.76 43.418C112.76 44.3739 111.949 45.1788 110.987 45.1788Z" fill="#EE927E"/>
<path id="Vector_25" d="M110.987 42.5627H106.43C105.468 42.5627 104.658 41.7577 104.658 40.8018C104.658 39.8459 105.468 39.041 106.43 39.041H110.987C111.949 39.041 112.76 39.8459 112.76 40.8018C112.76 41.7577 111.949 42.5627 110.987 42.5627Z" fill="#002334"/>
</g>
</g>
<g id="Group_10">
<path id="Vector_26" d="M107.844 30.1221C108.859 25.8496 106.196 21.5682 101.896 20.5593C97.5965 19.5505 93.2877 22.1962 92.2724 26.4687C91.257 30.7412 93.9197 35.0226 98.2196 36.0314C102.519 37.0403 106.828 34.3946 107.844 30.1221Z" fill="#002334"/>
<path id="Vector_27" d="M114.837 33.1588C115.506 30.3465 113.753 27.5284 110.923 26.8643C108.092 26.2003 105.256 27.9417 104.588 30.754C103.92 33.5663 105.672 36.3844 108.503 37.0485C111.333 37.7125 114.169 35.971 114.837 33.1588Z" fill="#002334"/>
<path id="Vector_28" d="M92.3887 35.528C94.3781 34.7092 95.3228 32.443 94.4987 30.4663C93.6747 28.4896 91.394 27.551 89.4046 28.3697C87.4153 29.1885 86.4706 31.4547 87.2947 33.4314C88.1187 35.4081 90.3994 36.3468 92.3887 35.528Z" fill="#002334"/>
</g>
</g>
<path id="Vector_29" d="M84.8608 116.419V122.406C84.8608 129.65 90.8355 135.637 98.1772 135.637C105.468 135.637 111.494 129.701 111.494 122.406V116.419H84.8608Z" fill="#009E9E"/>
<path id="Vector_30" d="M111.443 116.419H84.8608V120.544H111.443V116.419Z" fill="#00757B"/>
<path id="Vector_31" d="M111.494 122.355H98.1772V139.662H111.494V122.355Z" fill="#009E9E"/>
</g>
</g>
<defs>
<clipPath id="clip0_1_41">
<rect width="214" height="138" fill="white"/>
</clipPath>
</defs>
</svg>
