<svg width="128" height="126" viewBox="0 0 128 126" fill="none" xmlns="http://www.w3.org/2000/svg">
<g id="Group">
<path id="Vector" d="M92.5707 149.496H34.948C15.8302 149.496 0.320572 133.986 0.320572 114.868C0.320572 95.7506 15.8302 80.2409 34.948 80.2409H92.5707C111.689 80.2409 127.198 95.7506 127.198 114.868C127.198 133.986 111.689 149.496 92.5707 149.496Z" fill="#0980B7"/>
<path id="Vector_2" d="M92.7861 126.77H35.1635C19.8692 126.77 6.94449 116.861 2.31314 103.128C1.02067 106.79 0.266724 110.722 0.266724 114.815C0.266724 133.932 15.7764 149.442 34.8942 149.442H92.5169C111.635 149.442 127.144 133.932 127.144 114.815C127.144 110.991 126.498 107.275 125.367 103.829C120.574 117.184 107.811 126.77 92.7861 126.77Z" fill="#0B76A9"/>
<g id="Group_2">
<g id="Group_3">
<path id="Vector_3" d="M89.2318 33.8197C93.0685 33.8197 96.1788 30.7094 96.1788 26.8726C96.1788 23.0359 93.0685 19.9256 89.2318 19.9256C85.3951 19.9256 82.2848 23.0359 82.2848 26.8726C82.2848 30.7094 85.3951 33.8197 89.2318 33.8197Z" fill="#EE927E"/>
<path id="Vector_4" d="M38.2869 33.8197C42.1236 33.8197 45.2339 30.7094 45.2339 26.8726C45.2339 23.0359 42.1236 19.9256 38.2869 19.9256C34.4502 19.9256 31.3399 23.0359 31.3399 26.8726C31.3399 30.7094 34.4502 33.8197 38.2869 33.8197Z" fill="#EE927E"/>
</g>
<g id="Group_4">
<path id="Vector_5" d="M43.6184 26.3879C48.6151 26.3879 52.6657 22.3373 52.6657 17.3406C52.6657 12.3439 48.6151 8.29333 43.6184 8.29333C38.6217 8.29333 34.5711 12.3439 34.5711 17.3406C34.5711 22.3373 38.6217 26.3879 43.6184 26.3879Z" fill="#ACE0F3"/>
<path id="Vector_6" d="M83.9004 26.3879C88.8971 26.3879 92.9477 22.3373 92.9477 17.3406C92.9477 12.3439 88.8971 8.29333 83.9004 8.29333C78.9037 8.29333 74.8531 12.3439 74.8531 17.3406C74.8531 22.3373 78.9037 26.3879 83.9004 26.3879Z" fill="#ACE0F3"/>
</g>
<path id="Vector_7" d="M88.9626 26.1187V25.1493C88.9626 11.363 77.5996 0 63.7594 0C49.9191 0 38.5562 11.363 38.5562 25.2032V26.1725C31.9861 32.6349 27.8933 41.6822 27.8933 51.645V81.0487H99.6793V51.645C99.6254 41.6822 95.5326 32.6349 88.9626 26.1187Z" fill="#F6C09C"/>
<g id="Group_5">
<g id="Group_6">
<path id="Vector_8" d="M72.322 19.8718H67.7445C66.3443 19.8718 65.2134 18.7408 65.2134 17.3407C65.2134 15.9405 66.3443 14.8096 67.7445 14.8096H72.322C73.7221 14.8096 74.8531 15.9405 74.8531 17.3407C74.7992 18.7408 73.6683 19.8718 72.322 19.8718Z" fill="#EE927E"/>
<path id="Vector_9" d="M70.0063 27.3034C68.9831 27.3034 68.1753 26.4956 68.1753 25.4724V22.6721C68.1753 21.6489 68.9831 20.8411 70.0063 20.8411C71.0295 20.8411 71.8373 21.6489 71.8373 22.6721V25.4724C71.8373 26.4956 71.0295 27.3034 70.0063 27.3034Z" fill="#002334"/>
<path id="Vector_10" d="M72.322 16.5328H67.7445C66.3443 16.5328 65.2134 15.4019 65.2134 14.0017C65.2134 12.6016 66.3443 11.4706 67.7445 11.4706H72.322C73.7221 11.4706 74.8531 12.6016 74.8531 14.0017C74.7992 15.4019 73.6683 16.5328 72.322 16.5328Z" fill="#ACE0F3"/>
</g>
<g id="Group_7">
<path id="Vector_11" d="M59.8281 19.8718H55.2506C53.8504 19.8718 52.7195 18.7408 52.7195 17.3407C52.7195 15.9405 53.8504 14.8096 55.2506 14.8096H59.8281C61.2283 14.8096 62.3592 15.9405 62.3592 17.3407C62.3053 18.7408 61.1744 19.8718 59.8281 19.8718Z" fill="#EE927E"/>
<path id="Vector_12" d="M57.5124 27.3034C56.4892 27.3034 55.6814 26.4956 55.6814 25.4724V22.6721C55.6814 21.6489 56.4892 20.8411 57.5124 20.8411C58.5356 20.8411 59.3434 21.6489 59.3434 22.6721V25.4724C59.3434 26.4956 58.5356 27.3034 57.5124 27.3034Z" fill="#002334"/>
<path id="Vector_13" d="M59.8281 16.5328H55.2506C53.8504 16.5328 52.7195 15.4019 52.7195 14.0017C52.7195 12.6016 53.8504 11.4706 55.2506 11.4706H59.8281C61.2283 11.4706 62.3592 12.6016 62.3592 14.0017C62.3053 15.4019 61.1744 16.5328 59.8281 16.5328Z" fill="#ACE0F3"/>
</g>
</g>
<path id="Vector_14" d="M63.7594 56.5456C72.9144 56.5456 80.3461 49.1139 80.3461 39.9589H47.1726C47.1726 49.1139 54.6044 56.5456 63.7594 56.5456Z" fill="white"/>
<path id="Vector_15" d="M77.1688 29.6191H64.2979H63.2208H50.35C44.48 29.6191 39.7409 34.3582 39.7409 40.2282V43.5132H58.2125C60.6897 43.5132 62.8439 42.0053 63.8132 39.9051C64.7826 42.0592 66.8828 43.5132 69.4139 43.5132H87.8855V40.2282C87.7778 34.4121 83.0387 29.6191 77.1688 29.6191Z" fill="#ACE0F3"/>
<path id="Vector_16" d="M99.6793 71.3013H27.8933V81.0487H99.6793V71.3013Z" fill="#00A8C7"/>
<path id="Vector_17" d="M99.6793 66.2391H27.8933V71.3552H99.6793V66.2391Z" fill="#EE927E"/>
<path id="Vector_18" d="M64.9441 71.3013H62.6284V81.0487H64.9441V71.3013Z" fill="#086794"/>
<path id="Vector_19" d="M58.2663 78.3022C59.4263 78.3022 60.3666 77.3619 60.3666 76.2019C60.3666 75.042 59.4263 74.1017 58.2663 74.1017C57.1064 74.1017 56.1661 75.042 56.1661 76.2019C56.1661 77.3619 57.1064 78.3022 58.2663 78.3022Z" fill="white"/>
</g>
<path id="Vector_20" d="M64.8903 81.1025H62.5208V142.495H64.8903V81.1025Z" fill="#0A6E9E"/>
<g id="Group_8">
<path id="Vector_21" d="M59.5589 92.4656C59.5589 93.2734 58.9126 93.9196 58.1048 93.9196C57.2971 93.9196 56.6508 93.2734 56.6508 92.4656C56.6508 91.6578 57.2971 91.0115 58.1048 91.0115C58.9126 91.0115 59.5589 91.7116 59.5589 92.4656Z" fill="white"/>
<path id="Vector_22" d="M59.5589 105.283C59.5589 106.09 58.9126 106.737 58.1048 106.737C57.2971 106.737 56.6508 106.09 56.6508 105.283C56.6508 104.475 57.2971 103.829 58.1048 103.829C58.9126 103.829 59.5589 104.475 59.5589 105.283Z" fill="white"/>
<path id="Vector_23" d="M59.5589 118.1C59.5589 118.907 58.9126 119.554 58.1048 119.554C57.2971 119.554 56.6508 118.907 56.6508 118.1C56.6508 117.292 57.2971 116.646 58.1048 116.646C58.9126 116.646 59.5589 117.292 59.5589 118.1Z" fill="white"/>
</g>
</g>
</svg>
