<?xml version="1.0" encoding="utf-8"?>
<!-- Generator: Adobe Illustrator 23.0.4, SVG Export Plug-In . SVG Version: 6.00 Build 0)  -->
<svg version="1.1" id="Layer_1" xmlns="http://www.w3.org/2000/svg" xmlns:xlink="http://www.w3.org/1999/xlink" x="0px" y="0px"
	 viewBox="0 0 64 64" style="enable-background:new 0 0 64 64;" xml:space="preserve">
<g>
	<path d="M60.3,60.7c-0.7,0.7-1.5,0.9-2.4,0.9c-0.9,0-1.7-0.3-2.4-0.9L32,37.2L8.5,60.7c-0.7,0.7-1.5,1-2.4,1s-1.7-0.3-2.4-0.9
		c-1.3-1.3-1.3-3.4,0-4.7l23.6-23.6L3.7,9c-1.3-1.3-1.3-3.4,0-4.7s3.4-1.3,4.7,0L32,27.8L55.5,4.2c1.3-1.3,3.4-1.3,4.7,0
		s1.3,3.4,0,4.7L36.7,32.5L60.3,56C61.6,57.3,61.6,59.4,60.3,60.7z"/>
</g>
</svg>
